<?xml version="1.0" standalone="no"?>
<!DOCTYPE svg PUBLIC "-//W3C//DTD SVG 20010904//EN"
 "http://www.w3.org/TR/2001/REC-SVG-20010904/DTD/svg10.dtd">
<svg version="1.0" xmlns="http://www.w3.org/2000/svg"
 width="710.000000pt" height="703.000000pt" viewBox="0 0 710.000000 703.000000"
 preserveAspectRatio="xMidYMid meet">

<g transform="translate(0.000000,703.000000) scale(0.100000,-0.100000)"
fill="#000000" stroke="none">
<path d="M4375 6835 c-66 -7 -214 -22 -330 -34 -565 -55 -1064 -104 -1295
-127 -573 -55 -1181 -114 -1280 -123 -58 -6 -177 -17 -265 -25 -88 -9 -262
-25 -386 -36 -243 -21 -295 -33 -382 -91 -110 -72 -209 -218 -237 -349 -9 -41
-13 -587 -17 -2170 -6 -2352 -10 -2206 61 -2353 39 -81 54 -99 454 -522 440
-465 762 -786 825 -824 154 -91 256 -104 582 -72 121 11 486 46 810 76 688 65
1179 111 1320 125 55 5 170 17 255 25 415 40 684 66 770 75 52 5 286 28 520
50 234 22 455 45 493 50 203 31 391 165 479 342 75 152 71 -9 65 2341 -4 1479
-8 2117 -16 2151 -16 72 -74 184 -127 243 -34 39 -155 126 -482 344 -240 161
-471 315 -512 344 -215 149 -712 476 -755 498 -141 70 -307 89 -550 62z m312
-454 c40 -13 131 -68 298 -181 132 -89 342 -230 466 -314 125 -83 222 -154
215 -157 -6 -4 -69 -11 -141 -17 -71 -6 -249 -22 -395 -36 -146 -14 -611 -57
-1035 -96 -423 -39 -1011 -93 -1305 -120 -845 -79 -817 -77 -902 -57 -40 10
-96 30 -124 46 -74 40 -854 590 -854 601 0 4 62 12 138 19 75 7 178 16 227 21
50 5 257 25 460 44 204 20 442 42 530 51 151 14 573 54 1685 160 261 24 489
46 505 48 83 11 177 6 232 -12z m1518 -1105 c59 -27 100 -72 114 -124 12 -45
31 -1930 31 -3128 0 -933 3 -892 -67 -973 -19 -23 -53 -51 -75 -62 -47 -24
-24 -22 -883 -99 -1037 -95 -2772 -254 -2925 -270 -272 -27 -499 -43 -531 -36
-78 14 -139 79 -158 165 -14 64 -15 3960 -1 4011 15 58 66 119 115 141 25 11
87 23 147 29 86 9 1570 142 2728 246 162 15 525 48 805 74 611 57 633 58 700
26z"/>
<path d="M5655 4554 c-22 -3 -191 -18 -375 -34 -184 -17 -347 -33 -362 -36
-50 -10 -51 -13 -218 -444 -40 -102 -94 -241 -120 -310 -27 -69 -139 -361
-250 -650 -111 -289 -210 -549 -222 -577 -16 -41 -24 -51 -35 -44 -8 4 -62
133 -120 287 -57 153 -117 313 -133 354 -16 41 -48 129 -73 195 -25 66 -104
275 -177 465 -73 190 -149 390 -170 446 -68 181 -68 181 -199 171 -263 -22
-879 -78 -892 -82 -40 -13 -53 -121 -19 -155 17 -17 33 -20 110 -20 134 0 191
-36 219 -135 8 -28 11 -348 11 -1071 0 -1126 1 -1101 -57 -1156 -43 -39 -68
-49 -146 -55 -97 -7 -132 -18 -146 -49 -19 -42 -14 -108 11 -139 l22 -28 105
6 c289 17 796 68 818 82 28 19 37 53 30 108 -8 60 -24 67 -144 67 -143 0 -194
25 -222 109 -14 44 -16 2011 -1 2011 14 0 15 -1 215 -515 103 -264 283 -727
401 -1030 118 -302 230 -588 248 -635 43 -110 55 -117 179 -103 49 6 95 16
102 24 8 8 27 50 44 94 50 138 179 481 271 720 48 127 115 304 148 395 151
412 423 1125 432 1134 7 7 10 -307 8 -980 l-3 -990 -25 -36 c-34 -50 -69 -68
-147 -74 -121 -10 -143 -29 -143 -120 0 -35 6 -51 26 -71 26 -25 28 -26 127
-19 237 15 980 87 997 96 25 13 43 74 36 115 -10 51 -37 65 -127 65 -90 0
-132 22 -164 85 -20 39 -20 63 -23 1120 l-3 1080 23 45 c33 64 73 87 165 96
62 5 81 11 101 31 21 21 24 31 20 74 -3 28 -12 57 -20 66 -17 16 -71 23 -133
17z"/>
</g>
</svg>
